<?xml version="1.0" encoding="UTF-8" standalone="no"?>
<!-- Created with Inkscape (http://www.inkscape.org/) -->

<svg
   width="342.43192"
   height="336.81274"
   viewBox="0 0 342.43192 336.81274"
   version="1.1"
   id="svg1"
   xml:space="preserve"
   xmlns:inkscape="http://www.inkscape.org/namespaces/inkscape"
   xmlns:sodipodi="http://sodipodi.sourceforge.net/DTD/sodipodi-0.dtd"
   xmlns="http://www.w3.org/2000/svg"
   xmlns:svg="http://www.w3.org/2000/svg"><sodipodi:namedview
     id="namedview1"
     pagecolor="#505050"
     bordercolor="#eeeeee"
     borderopacity="1"
     inkscape:showpageshadow="0"
     inkscape:pageopacity="0"
     inkscape:pagecheckerboard="0"
     inkscape:deskcolor="#505050"
     inkscape:document-units="px"
     showguides="true"
     inkscape:export-bgcolor="#ffffff00" /><defs
     id="defs1" /><g
     inkscape:label="Layer 1"
     inkscape:groupmode="layer"
     id="layer1"
     transform="translate(-397.37259,-14.25955)"><path
       style="fill:#ffffff;fill-opacity:1;stroke:none;stroke-width:14.6079;stroke-linecap:square"
       d="M 620.08453,133.82119 486.83059,204.46266 483.53847,160.03324 397.3726,351.07229 590.493,269.6745 546.15719,265.28086 Z"
       id="path2"
       sodipodi:nodetypes="ccccccc"
       inkscape:label="path2" /><path
       style="fill:#ffffff;fill-opacity:1;stroke:none;stroke-width:14.6079;stroke-linecap:square"
       d="M 619.91902,167.09164 730.95826,282.1251 c 0,0 11.28346,2.39706 8.36362,-16.4206 -1.64197,-10.58223 -37.32465,-57.32634 -37.5214,-59.19126 -0.33774,-3.20111 -1.51491,-22.32791 -1.59769,-23.04531 l -59.91326,-49.52829 z"
       id="path3"
       sodipodi:nodetypes="ccssccc" /><path
       style="fill:#ffffff;fill-opacity:1;stroke:none;stroke-width:14.6079;stroke-linecap:square"
       d="M 586.72674,134.14501 471.69329,23.105766 c 0,0 -2.39706,-11.283456 16.42059,-8.363619 10.58223,1.641975 57.32635,37.32465 59.19126,37.521405 3.20111,0.337735 22.32792,1.514911 23.04531,1.597687 l 49.5283,59.913261 z"
       id="path3-0"
       sodipodi:nodetypes="ccssccc" /><path
       style="fill:#ffffff;fill-opacity:1;stroke:none;stroke-width:14.6079;stroke-linecap:square"
       d="m 697.73774,58.979541 c 0,0 -51.89406,25.264367 -63.74834,37.817121 -9.41909,9.974088 -5.7008,20.608468 -1.53528,25.104278 4.39219,4.28627 14.82722,8.43342 25.14173,-0.61161 12.98119,-11.3835 40.14189,-62.309789 40.14189,-62.309789 z"
       id="path4"
       sodipodi:nodetypes="cscsc" /></g></svg>
